<svg width="26" height="25" viewBox="0 0 26 25" fill="none" xmlns="http://www.w3.org/2000/svg">
<path d="M12.4057 12.6545L11.677 15.6735C12.6139 15.8817 15.4768 16.8187 15.8932 15.101C16.3096 13.3312 13.3427 12.9148 12.4057 12.6545Z" fill="#ED6C0C"/>
<path d="M15.8932 15.1531C16.3617 13.3833 13.3427 12.9149 12.4057 12.7067L11.677 15.6736" fill="#E05A00"/>
<path d="M13.4467 8.54248L12.77 11.3012C13.5508 11.5094 15.9452 12.2902 16.3095 10.7287C16.6739 9.11505 14.2275 8.75069 13.4467 8.54248Z" fill="#ED6C0C"/>
<path d="M16.3095 10.7287C16.7259 9.11505 14.2275 8.75069 13.4467 8.54248L12.77 11.3012" fill="#E05A00"/>
<path d="M16.5176 0.370442C9.80291 -1.29521 3.03619 2.81687 1.37054 9.47949C-0.295117 16.1942 3.76492 22.9609 10.4796 24.6265C17.1943 26.2922 23.961 22.2322 25.6266 15.5175C27.2923 8.85487 23.2323 2.08815 16.5176 0.370442ZM19.0161 10.7287C18.8599 11.9259 18.1832 12.5505 17.2463 12.7587C18.4955 13.3834 19.1202 14.3723 18.4955 16.0901C17.7668 18.2242 15.9971 18.3803 13.6547 17.9639L13.0822 20.2542L11.7288 19.8378L12.3014 17.5996C11.937 17.4955 11.5727 17.3913 11.2083 17.3393L10.6357 19.5775L9.2824 19.2132L9.85496 16.9229C9.54265 16.8188 9.23034 16.7667 8.86598 16.6626L7.09622 16.1942L7.7729 14.6326L8.76188 14.8929C9.12624 14.997 9.33445 14.7367 9.3865 14.5806L10.2714 10.989C10.3234 10.989 10.3755 10.989 10.4275 11.041C10.3755 11.041 10.3234 10.989 10.2714 10.989L10.896 8.43845C10.896 8.12614 10.7919 7.76178 10.2714 7.65768L9.2824 7.39742L9.64676 5.93997L11.5206 6.40844C11.7809 6.46049 12.0932 6.56459 12.4055 6.61665L12.9781 4.37842L14.3314 4.74278L13.7588 6.92896C14.1232 7.03306 14.4876 7.08511 14.8519 7.18921L15.3724 5.00304L16.7258 5.3674L16.1532 7.60563C17.975 8.1782 19.2763 9.06307 19.0161 10.7287Z" fill="#FFB600"/>
<path d="M1.37054 9.47941C-0.295117 16.1941 3.76492 22.9608 10.4796 24.6265C17.1943 26.2921 23.961 22.2321 25.6266 15.5174C27.2923 8.80274 23.2323 2.03602 16.5176 0.370361M19.0161 10.7286C18.8599 11.9258 18.1832 12.5505 17.2463 12.7587C18.4955 13.3833 19.1202 14.3723 18.4955 16.09C17.7668 18.2241 15.9971 18.3802 13.6547 17.9638L13.0822 20.2541L11.7288 19.8377L12.3014 17.5995C11.937 17.4954 11.5727 17.3913 11.2083 17.3392L10.6357 19.5774L9.2824 19.2131L9.85496 16.9228C9.54265 16.8187 9.23034 16.7666 8.86598 16.6625L7.09622 16.1941L7.7729 14.6325L8.76188 14.8928C9.12624 14.9969 9.33445 14.7366 9.3865 14.5805L10.2714 10.9889C10.3234 10.9889 10.3755 10.9889 10.4275 11.041C10.3755 11.041 10.3234 10.9889 10.2714 10.9889L10.896 8.43837C10.896 8.12606 10.7919 7.7617 10.2714 7.6576L9.2824 7.39734L9.64676 5.93989L11.5206 6.40836C11.7809 6.46041 12.0932 6.56451 12.4055 6.61656L12.9781 4.37834L14.3314 4.7427L13.7588 6.92887C14.1232 7.03298 14.4876 7.08503 14.8519 7.18913L15.3724 5.00296L16.7258 5.36732L16.1532 7.60555C17.975 8.17812 19.2763 9.06299 19.0161 10.7286Z" fill="#F6921E"/>
<path d="M25.5226 15.986L18.7559 9.21924C19.0161 9.63565 19.1723 10.1562 19.0682 10.7808C18.912 11.978 18.2353 12.6026 17.2984 12.8108C18.5477 13.4354 19.1723 14.4244 18.5477 16.1421C17.8189 18.2762 16.0492 18.4324 13.7068 18.016L13.1343 20.3062L11.7289 19.8378L12.3015 17.5996C11.9371 17.4955 11.5727 17.3914 11.2084 17.3393L10.6358 19.5775L10.3235 19.4734L15.6328 24.7827C20.2133 24.0019 24.1692 20.6706 25.5226 15.986Z" fill="#D85107"/>
<path d="M7.09619 16.2462L9.43852 18.5885L9.85493 16.9229C9.54262 16.8188 9.23031 16.7667 8.86595 16.6626L7.09619 16.2462Z" fill="#E26600"/>
<path d="M16.4653 6.92896L16.2571 7.60563C16.8817 7.81383 17.4543 8.07409 17.9227 8.3864L16.4653 6.92896Z" fill="#E26600"/>
<path d="M14.3834 4.7428L13.8108 6.92897C14.1752 7.03307 14.5395 7.08512 14.9039 7.18923L15.2682 5.62768L14.3834 4.7428Z" fill="#ED6C0C"/>
<path d="M16.8296 5.31531L16.2571 7.55353L16.3091 7.60558C17.8707 8.1261 19.0679 8.95893 19.0679 10.3643L25.3141 16.6105C25.4182 16.2462 25.5223 15.8818 25.6264 15.5695C25.7305 15.1531 25.7825 14.7887 25.8346 14.3723L16.8296 5.31531Z" fill="#ED6C0C"/>
<path d="M18.027 24.1581L13.2903 19.4214L13.0821 20.2021L11.7287 19.8378L12.1451 18.2242L11.2082 17.2872L10.6356 19.5255L9.28228 19.1611V19.109L9.23022 19.1611L14.9039 24.8347C15.9969 24.7827 17.038 24.5224 18.027 24.1581Z" fill="#ED6C0C"/>
<path d="M19.3283 23.5334L13.7067 17.9119C13.7067 17.9119 13.7067 17.9119 13.6546 17.9119L13.0821 20.2021L11.7808 19.8898L16.5175 24.6265C17.5064 24.3663 18.4434 24.0019 19.3283 23.5334Z" fill="#E05A00"/>
</svg>
