<svg width="52" height="26" viewBox="0 0 52 26" fill="none" xmlns="http://www.w3.org/2000/svg">
<path d="M39.5836 9.35128C40.2048 9.14405 40.8718 9.03593 41.5662 9.03593C44.5994 9.03593 47.1302 11.1623 47.7058 13.9825L51.9999 13.1175C51.0132 8.32412 46.7191 4.71106 41.5662 4.71106C40.3876 4.71106 39.2546 4.90027 38.1948 5.25167L39.5836 9.35128Z" fill="#FFF100"/>
<path d="M34.5127 23.0828L37.4181 19.8391C36.1207 18.7038 35.3076 17.055 35.3076 15.2079C35.3076 13.3698 36.1207 11.712 37.4181 10.5857L34.5127 7.35107C32.3109 9.27924 30.9221 12.0814 30.9221 15.2169C30.9221 18.3434 32.3109 21.1546 34.5127 23.0828Z" fill="#00A3DF"/>
<path d="M47.7057 16.4512C47.1209 19.2713 44.5993 21.3887 41.566 21.3887C40.8716 21.3887 40.2047 21.2806 39.5743 21.0734L38.1855 25.173C39.2454 25.5244 40.3874 25.7136 41.566 25.7136C46.7189 25.7136 51.0131 22.1095 51.9998 17.3161L47.7057 16.4512Z" fill="#EE4023"/>
<path d="M15.1177 19.3393C13.9685 20.4436 12.4215 21.112 10.7124 21.0829C9.53369 21.0684 8.44341 20.7197 7.52993 20.1385L5.23149 23.7419C6.80798 24.7154 8.64968 25.2966 10.6534 25.3256C13.5559 25.3692 16.208 24.2359 18.1381 22.3906L15.1177 19.3393ZM10.9628 4.64957C5.18729 4.56239 0.413626 9.12479 0.325225 14.8205C0.295758 16.9564 0.914567 18.9615 2.01958 20.6179L20.9964 12.612C19.9356 8.12222 15.8691 4.73675 10.9628 4.64957ZM4.67162 15.6342C4.64215 15.4017 4.62742 15.1547 4.62742 14.9077C4.68635 11.5513 7.48573 8.86325 10.8892 8.92137C12.7456 8.95043 14.3958 9.77863 15.5008 11.0863L4.67162 15.6342ZM26.9635 0V19.9496L30.4701 21.388L28.8052 25.3256L25.328 23.9017C24.5472 23.5675 24.0168 23.059 23.619 22.4778C23.2359 21.8966 22.9412 21.0829 22.9412 20.0077V0H26.9635Z" fill="black"/>
</svg>
